<svg width="52" height="52" viewBox="0 0 52 52" fill="none" xmlns="http://www.w3.org/2000/svg">
<path d="M51 50.9953V47.8703L4.18592 47.875L4.125 1L1 1.00316L1.06408 51L51 50.9953Z" fill="black"/>
<path d="M10.2558 20.9703L1.04486 34.2156L3.61047 36L11.0589 25.2922L25.7276 35.2453L36.1199 17.9188L40.4199 20.8376L41.3964 7.43439L29.2996 13.2906L33.5292 16.1609L24.7479 30.8047L10.2558 20.9703Z" fill="black"/>
<path fill-rule="evenodd" clip-rule="evenodd" d="M4.12399 5.23461e-07C4.67616 -0.000558389 5.12428 0.446528 5.125 0.9987L5.1582 26.5491L9.43478 20.3994C9.74755 19.9496 10.364 19.8352 10.8173 20.1428L24.4342 29.3833L32.1854 16.4575L28.738 14.1181C28.4424 13.9174 28.2762 13.5743 28.3022 13.218C28.3281 12.8616 28.5422 12.5462 28.8638 12.3905L40.9606 6.53431C41.2822 6.37864 41.6624 6.40634 41.958 6.60699C42.2536 6.80763 42.4197 7.15073 42.3937 7.50705L41.4172 20.9102C41.3913 21.2665 41.1772 21.5819 40.8556 21.7376C40.534 21.8933 40.1538 21.8656 39.8582 21.6649L36.4334 19.3402L26.5852 35.7597C26.4438 35.9954 26.2115 36.1626 25.9431 36.2218C25.6746 36.2811 25.3936 36.2272 25.1661 36.0728L11.3154 26.6747L5.16985 35.5094L5.18462 46.8749L50.9999 46.8703C51.2651 46.8703 51.5195 46.9756 51.7071 47.1632C51.8946 47.3507 52 47.6051 52 47.8703V50.9953C52 51.5476 51.5523 51.9953 51.0001 51.9953L1.06418 52C0.512355 52.0001 0.0647897 51.5531 0.0640824 51.0013L8.22545e-07 1.00444C-0.000339162 0.739182 0.104729 0.484652 0.292083 0.296868C0.479437 0.109084 0.733725 0.00343226 0.998988 0.00316374L4.12399 5.23461e-07ZM5.16531 32.0136L10.238 24.7212C10.5508 24.2715 11.1671 24.1572 11.6204 24.4647L25.414 33.824L35.2623 17.4044C35.4037 17.1686 35.636 17.0015 35.9045 16.9422C36.173 16.883 36.454 16.937 36.6815 17.0914L39.5484 19.0374L40.2732 9.08917L31.2945 13.4359L34.0908 15.3335C34.5298 15.6314 34.6597 16.2202 34.3869 16.6752L25.6055 31.319C25.4641 31.5548 25.2319 31.7219 24.9634 31.7812C24.6949 31.8404 24.4139 31.7865 24.1864 31.6322L10.5123 22.3529L5.16275 30.0456L5.16531 32.0136ZM3.16193 29.4197L3.1263 2.00101L2.00128 2.00215L2.03849 31.0352L3.16193 29.4197ZM2.04502 36.1293L3.03949 36.821C3.08217 36.8506 3.12636 36.8765 3.17165 36.8987L3.18592 47.8763C3.18664 48.4281 3.6342 48.8751 4.18602 48.875L50 48.8704V49.9954L2.0628 49.9999L2.04502 36.1293ZM2.43675 33.9656L3.16648 32.9162L3.1685 34.4745L2.43675 33.9656Z" fill="black"/>
</svg>
