<svg width="44" height="50" viewBox="0 0 44 50" fill="none" xmlns="http://www.w3.org/2000/svg">
<path d="M10.8009 29.5455C10.8009 28.2902 11.768 27.2727 12.9611 27.2727C14.1541 27.2727 15.1213 28.2902 15.1213 29.5455C15.1213 30.8007 14.1541 31.8182 12.9611 31.8182C11.768 31.8182 10.8009 30.8007 10.8009 29.5455Z" fill="black"/>
<path d="M12.9611 36.364C11.768 36.364 10.8009 37.3815 10.8009 38.6368C10.8009 39.892 11.768 40.9095 12.9611 40.9095C14.1541 40.9095 15.1213 39.892 15.1213 38.6368C15.1213 37.3815 14.1541 36.364 12.9611 36.364Z" fill="black"/>
<path d="M19.4417 29.5455C19.4417 28.2902 20.4089 27.2727 21.6019 27.2727C22.795 27.2727 23.7621 28.2902 23.7621 29.5455C23.7621 30.8007 22.795 31.8182 21.6019 31.8182C20.4089 31.8182 19.4417 30.8007 19.4417 29.5455Z" fill="black"/>
<path d="M21.6019 36.364C20.4089 36.364 19.4417 37.3815 19.4417 38.6368C19.4417 39.892 20.4089 40.9095 21.6019 40.9095C22.795 40.9095 23.7621 39.892 23.7621 38.6368C23.7621 37.3815 22.795 36.364 21.6019 36.364Z" fill="black"/>
<path d="M28.0825 29.5455C28.0825 28.2902 29.0496 27.2727 30.2427 27.2727C31.4357 27.2727 32.4029 28.2902 32.4029 29.5455C32.4029 30.8007 31.4357 31.8182 30.2427 31.8182C29.0496 31.8182 28.0825 30.8007 28.0825 29.5455Z" fill="black"/>
<path d="M30.2427 36.364C29.0496 36.364 28.0825 37.3815 28.0825 38.6368C28.0825 39.892 29.0496 40.9095 30.2427 40.9095C31.4357 40.9095 32.4029 39.892 32.4029 38.6368C32.4029 37.3815 31.4357 36.364 30.2427 36.364Z" fill="black"/>
<path fill-rule="evenodd" clip-rule="evenodd" d="M8.64078 2.27273C8.64078 1.01755 9.60794 0 10.801 0C11.994 0 12.9612 1.01755 12.9612 2.27273V4.54545H30.2427V2.27273C30.2427 1.01755 31.2098 0 32.4029 0C33.596 0 34.5631 1.01755 34.5631 2.27273V4.54545H36.7233C40.3025 4.54545 43.2039 7.59807 43.2039 11.3636V43.1818C43.2039 46.9475 40.3025 50 36.7233 50H6.48058C2.90147 50 0 46.9475 0 43.1818V11.3636C0 7.59807 2.90147 4.54545 6.48058 4.54545H8.64078V2.27273ZM30.2427 9.09091V11.3636C30.2427 12.6188 31.2098 13.6364 32.4029 13.6364C33.596 13.6364 34.5631 12.6188 34.5631 11.3636V9.09091H36.7233C37.9164 9.09091 38.8835 10.1085 38.8835 11.3636V18.1818H4.32039V11.3636C4.32039 10.1085 5.28755 9.09091 6.48058 9.09091H8.64078V11.3636C8.64078 12.6188 9.60794 13.6364 10.801 13.6364C11.994 13.6364 12.9612 12.6188 12.9612 11.3636V9.09091H30.2427ZM4.32039 22.7273V43.1818C4.32039 44.437 5.28755 45.4545 6.48058 45.4545H36.7233C37.9164 45.4545 38.8835 44.437 38.8835 43.1818V22.7273H4.32039Z" fill="black"/>
</svg>
