<svg width="69" height="50" viewBox="0 0 69 50" fill="none" xmlns="http://www.w3.org/2000/svg">
<path fill-rule="evenodd" clip-rule="evenodd" d="M0.149445 24.0636C4.7072 10.1201 18.2622 0 34.2857 0C50.3091 0 63.8642 10.1202 68.422 24.0636C68.6212 24.6732 68.6212 25.3268 68.422 25.9364C63.8642 39.8798 50.3091 50 34.2857 50C18.2622 50 4.70713 39.8799 0.149442 25.9364C-0.0498148 25.3268 -0.0498141 24.6732 0.149445 24.0636ZM6.68016 25C10.699 35.9267 21.5456 43.75 34.2857 43.75C47.0257 43.75 57.8723 35.9268 61.8913 25C57.8723 14.0733 47.0257 6.25 34.2857 6.25C21.5456 6.25 10.6991 14.0732 6.68016 25Z" fill="black"/>
<path fill-rule="evenodd" clip-rule="evenodd" d="M34.7639 19.1077C31.0822 19.1077 28.0974 21.9058 28.0974 25.3577C28.0974 28.8096 31.0822 31.6077 34.7639 31.6077C38.446 31.6077 41.4306 28.8096 41.4306 25.3577C41.4306 21.9057 38.446 19.1077 34.7639 19.1077ZM21.4307 25.3577C21.4307 18.4539 27.4003 12.8577 34.7639 12.8577C42.1279 12.8577 48.0973 18.454 48.0973 25.3577C48.0973 32.2614 42.1279 37.8577 34.7639 37.8577C27.4003 37.8577 21.4307 32.2614 21.4307 25.3577Z" fill="black"/>
</svg>
