<svg width="53" height="50" viewBox="0 0 53 50" fill="none" xmlns="http://www.w3.org/2000/svg">
<path fill-rule="evenodd" clip-rule="evenodd" d="M44.0425 4.35928C41.798 4.35928 39.9785 6.18371 39.9785 8.43426C39.9785 10.6848 41.798 12.5092 44.0425 12.5092C46.2869 12.5092 48.1065 10.6848 48.1065 8.43426C48.1065 6.18371 46.2869 4.35928 44.0425 4.35928ZM35.6309 8.43426C35.6309 3.77615 39.3969 0 44.0425 0C48.688 0 52.454 3.77615 52.454 8.43426C52.454 13.0924 48.688 16.8685 44.0425 16.8685C39.3969 16.8685 35.6309 13.0924 35.6309 8.43426Z" fill="black"/>
<path d="M41.1323 33.3972C39.6652 34.0277 38.6172 34.6582 37.7788 35.2886C37.3596 35.4988 37.15 35.9191 36.9405 36.1292C36.7309 36.3394 36.5213 36.7597 36.3117 36.7597C35.8925 37.1801 35.4734 37.3902 33.3773 37.3902H32.9017C32.3198 34.8729 30.0622 32.9768 27.299 32.9768H23.1071C20.3441 32.9768 18.2123 34.8729 17.5892 37.3902H17.0288C14.9329 37.3902 14.5137 37.1801 14.0945 36.7597C14.0945 36.7597 13.6752 36.3394 13.4657 36.1292C13.2561 35.9191 12.8369 35.4988 12.6273 35.2886C11.789 34.6582 10.741 34.0277 9.27384 33.3972C8.22583 32.9768 6.96826 33.3972 6.54913 34.448C6.12991 35.4989 6.54913 36.7598 7.59714 37.1801C9.4835 38.0207 9.4835 38.0207 10.9506 39.4919C12.2082 41.1732 13.885 41.5935 17.0289 41.5935H17.7384L18.2865 45.1663C18.9153 47.8983 21.2209 50 23.9456 50H26.4607C29.1854 50 31.7005 47.8984 32.1198 45.1663L32.6679 41.5935H33.3773C36.5213 41.5935 37.9884 41.1731 39.4556 39.702C40.7132 38.2309 40.9228 38.0207 42.8091 37.3902C43.8571 36.9699 44.2762 35.7089 43.8571 34.6582C43.4379 33.3972 42.1803 32.9768 41.1323 33.3972ZM28.7662 39.0715L27.9278 44.5358C27.7183 45.3764 27.0895 45.7967 26.4607 45.7967H24.1551C23.5263 45.7967 22.8975 45.3764 22.688 44.5358L21.8496 39.0715C21.4304 38.2309 22.2689 37.3902 23.1072 37.3902H27.2991C28.1374 37.3902 28.9758 38.2309 28.7662 39.0715Z" fill="black"/>
<path d="M33.2805 4.2123C33.1734 4.2029 33.066 4.1937 32.9581 4.18469C32.4174 4.14855 31.889 4.1124 31.3763 4.07733C28.9079 3.90846 26.8011 3.76433 25.4127 3.76433H24.5743C16.8194 3.76433 9.4835 4.60495 4.66278 6.91675C3.19565 7.54724 2.14764 8.80821 1.72842 10.2793C-0.157938 15.5333 -0.786724 20.7874 1.30919 24.9906C2.3572 26.882 3.82434 28.3531 5.92025 29.1938C8.22583 30.0344 10.9505 30.6649 14.0945 30.6649C14.9328 30.6649 15.7713 30.6649 16.4 30.4548C18.7056 30.2447 20.8015 29.404 22.6879 27.9329L23.3167 27.3024C23.6361 26.7686 23.9555 26.2348 24.2749 25.701C24.5843 25.184 24.8937 24.667 25.203 24.15C25.6223 24.7104 26.0415 25.4577 26.4607 26.205C26.6703 26.5786 26.8798 26.9521 27.0894 27.3024L27.7182 27.9329C29.6045 29.404 31.7004 30.2447 34.006 30.4548C34.4553 30.4548 34.9046 30.5151 35.3216 30.5712C35.6828 30.6197 36.0198 30.6649 36.3116 30.6649C39.4555 30.6649 42.1802 30.0344 44.4858 29.1938C46.5817 28.3532 48.049 26.882 49.0969 24.9906C50.1447 22.8895 50.5115 20.5257 50.3808 18.0307C49.1787 18.8253 47.8195 19.4004 46.36 19.699C46.3108 21.0375 46.0541 22.266 45.5338 23.3094C45.1146 24.3603 44.2763 24.9908 43.2282 25.411C41.3419 26.0415 39.0363 26.672 36.5212 26.672H34.6348C33.3772 26.4619 31.9101 26.0415 30.8621 25.2009C30.2194 24.1881 29.6168 23.2157 29.0722 22.3366C28.3735 21.209 27.7701 20.2351 27.299 19.5265L26.6702 18.6859H23.9455L23.1071 19.5265L23.1068 19.5271C22.2684 20.788 21.011 22.6792 19.9632 24.7805C18.7056 25.6211 17.448 26.2516 16.1905 26.2516H14.3041C11.789 26.2516 9.4834 25.8313 7.59705 24.9907C6.33948 24.7805 5.50113 24.1501 5.08191 23.0992C3.61477 20.3671 4.24356 15.9538 5.71069 11.5404C5.92025 11.12 6.12991 10.6998 6.54904 10.4895C10.5313 8.8082 17.4479 7.96759 24.5742 7.96759H25.4126C26.8403 7.96759 29.6575 8.16658 32.512 8.37101C32.512 6.90505 32.7842 5.50281 33.2805 4.2123Z" fill="black"/>
</svg>
