<svg width="58" height="50" viewBox="0 0 58 50" fill="none" xmlns="http://www.w3.org/2000/svg">
<path d="M39.1955 17.8465C38.652 17.8465 38.2115 18.287 38.2115 18.8305V39.7939C38.2115 44.2155 34.0176 47.8132 28.8634 47.8132C24.0964 47.8132 20.1508 44.7356 19.585 40.7751C19.5081 40.2371 19.0748 39.7939 18.5314 39.7939C17.9879 39.7939 17.5413 40.2362 17.6048 40.7759C18.1803 45.669 23.0092 49.5015 28.8634 49.5015C35.104 49.5015 40.1795 45.1464 40.1795 39.7939V18.8305C40.1795 18.287 39.7389 17.8465 39.1955 17.8465Z" fill="black"/>
<path fill-rule="evenodd" clip-rule="evenodd" d="M37.7129 18.598C37.7129 17.9076 38.2726 17.348 38.963 17.348H39.4279C40.1183 17.348 40.678 17.9076 40.678 18.598V39.7939C40.678 45.4906 35.3049 50 28.8634 50C22.4219 50 17.0489 45.4906 17.0489 39.7939C17.0489 39.5186 17.272 39.2954 17.5474 39.2954H19.5154C19.7907 39.2954 20.0139 39.5186 20.0139 39.7939C20.0139 43.8712 23.9101 47.3147 28.8634 47.3147C33.8167 47.3147 37.7129 43.8712 37.7129 39.7939V18.598ZM39.1955 18.345C38.9273 18.345 38.71 18.5623 38.71 18.8305V39.7939C38.71 44.5598 34.2185 48.3117 28.8634 48.3117C23.87 48.3117 19.6274 45.0494 19.0772 40.7448C19.0448 40.4912 18.8347 40.2925 18.579 40.2925C18.2988 40.2925 18.0754 40.5296 18.1116 40.8075C18.7042 45.3562 23.2361 49.003 28.8634 49.003C34.9031 49.003 39.681 44.8021 39.681 39.7939V18.8305C39.681 18.5623 39.4636 18.345 39.1955 18.345Z" fill="black"/>
<path d="M35.1944 23.4297H1.29611C0.745108 23.4297 0.299103 23.8757 0.299103 24.4267V31.8418C0.299103 36.4806 4.07309 40.2539 8.71121 40.2539C13.3493 40.2539 17.1233 36.4799 17.1233 31.8418C17.1233 30.8182 17.7275 30.4553 18.2453 30.4553C18.763 30.4553 19.3666 30.8182 19.3666 31.8418C19.3666 36.4806 23.1406 40.2539 27.7787 40.2539C32.4168 40.2539 36.1914 36.4799 36.1914 31.8418V24.4267C36.1914 23.8757 35.7454 23.4297 35.1944 23.4297ZM34.1974 31.8418C34.1974 35.3812 31.3174 38.2599 27.7793 38.2599C24.2413 38.2599 21.3612 35.3806 21.3612 31.8418C21.3612 29.6232 19.7939 28.4613 18.2459 28.4613C16.6979 28.4613 15.1292 29.6225 15.1292 31.8418C15.1292 35.3207 12.1907 38.2599 8.71113 38.2599C5.17308 38.2599 2.29304 35.3806 2.29304 31.8418V26.6738C2.29304 25.9834 2.85271 25.4237 3.54309 25.4237H32.9473C33.6377 25.4237 34.1973 25.9834 34.1973 26.6738V31.8417C34.1973 31.8418 34.1974 31.8418 34.1974 31.8418Z" fill="black"/>
<path fill-rule="evenodd" clip-rule="evenodd" d="M33.8982 31.8726V26.9729C33.8982 26.2825 33.3386 25.7228 32.6482 25.7228H3.84219C3.15181 25.7228 2.59215 26.2825 2.59215 26.9729V31.8418C2.59215 35.2154 5.33824 37.9608 8.71113 37.9608C12.0255 37.9608 14.8301 35.1555 14.8301 31.8418C14.8301 29.4486 16.5415 28.1622 18.2459 28.1622C19.9505 28.1622 21.6603 29.4495 21.6603 31.8418C21.6603 35.2154 24.4064 37.9608 27.7793 37.9608C31.142 37.9608 33.8816 35.2326 33.8982 31.8726ZM34.1905 32.1409C34.0337 35.542 31.2172 38.2599 27.7793 38.2599C24.2413 38.2599 21.3612 35.3806 21.3612 31.8418C21.3612 29.6232 19.7939 28.4613 18.2459 28.4613C16.6979 28.4613 15.1292 29.6225 15.1292 31.8418C15.1292 35.3207 12.1907 38.2599 8.71113 38.2599C5.17308 38.2599 2.29304 35.3806 2.29304 31.8418V26.6738C2.29304 25.9834 2.85271 25.4237 3.54309 25.4237H32.9473C33.6377 25.4237 34.1973 25.9834 34.1973 26.6738V31.8417C34.1973 31.8418 34.1974 31.8418 34.1974 31.8418C34.1974 31.8523 34.1974 31.8628 34.1973 31.8733C34.1969 31.963 34.1946 32.0522 34.1905 32.1409ZM1.29611 23.1306H35.1944C35.9106 23.1306 36.4905 23.7105 36.4905 24.4267V31.8418C36.4905 36.6452 32.582 40.553 27.7787 40.553C22.9754 40.553 19.0675 36.6458 19.0675 31.8418C19.0675 31.3902 18.9358 31.1256 18.7871 30.9747C18.6357 30.8212 18.4363 30.7544 18.2453 30.7544C18.0542 30.7544 17.8546 30.8212 17.7031 30.9748C17.5542 31.1257 17.4224 31.3904 17.4224 31.8418C17.4224 36.6451 13.5145 40.553 8.71121 40.553C3.90792 40.553 0 36.6458 0 31.8418V24.4267C0 23.7105 0.579919 23.1306 1.29611 23.1306ZM1.29611 23.4297H35.1944C35.7454 23.4297 36.1914 23.8757 36.1914 24.4267V31.8418C36.1914 36.4799 32.4168 40.2539 27.7787 40.2539C23.1406 40.2539 19.3666 36.4806 19.3666 31.8418C19.3666 30.8182 18.763 30.4553 18.2453 30.4553C17.7275 30.4553 17.1233 30.8182 17.1233 31.8418C17.1233 36.4799 13.3493 40.2539 8.71121 40.2539C4.07309 40.2539 0.299103 36.4806 0.299103 31.8418V24.4267C0.299103 23.8757 0.745108 23.4297 1.29611 23.4297Z" fill="black"/>
<path d="M39.3486 19.1093H55.1741V16.6168H39.3486V19.1093ZM40.1399 0H38.5573V2.49252H40.1399V0ZM23.5231 19.1093H39.3486V16.6168H23.5231V19.1093ZM21.4855 17.0718C21.4855 18.1971 22.3978 19.1093 23.5231 19.1093V16.6168C23.7744 16.6168 23.9781 16.8205 23.9781 17.0718H21.4855ZM57.2117 17.0718C57.2117 7.6433 49.5685 0 40.1399 0V2.49252C48.1918 2.49252 54.7192 9.01989 54.7192 17.0718H57.2117ZM55.1741 19.1093C56.2994 19.1093 57.2117 18.1971 57.2117 17.0718H54.7192C54.7192 16.8205 54.9229 16.6168 55.1741 16.6168V19.1093ZM38.5573 0C29.1288 0 21.4855 7.6433 21.4855 17.0718H23.9781C23.9781 9.01989 30.5054 2.49252 38.5573 2.49252V0Z" fill="black"/>
<path fill-rule="evenodd" clip-rule="evenodd" d="M34.6899 2.41066C35.8483 1.02228 37.3887 0 39.349 0C41.3093 0 42.8497 1.02226 44.0082 2.41065C45.1523 3.78184 46.0052 5.59674 46.6502 7.45688C47.7366 10.5895 48.3171 14.1027 48.6141 16.4977C48.6988 17.1807 48.1996 17.7926 47.515 17.8631C46.8303 17.9336 46.2195 17.4363 46.1341 16.7533C45.8462 14.4494 45.2952 11.1568 44.2953 8.27352C43.6951 6.54261 42.9626 5.04804 42.0944 4.00753C41.2405 2.9842 40.3416 2.49252 39.349 2.49252C38.3563 2.49252 37.4575 2.98419 36.6037 4.00752C35.7355 5.04803 35.003 6.54261 34.4028 8.27352C33.4029 11.1568 32.8519 14.4495 32.5639 16.7533C32.4785 17.4363 31.8677 17.9336 31.183 17.8631C30.4984 17.7926 29.9992 17.1807 30.0839 16.4977C30.381 14.1026 30.9615 10.5895 32.0478 7.45688C32.6928 5.59674 33.5457 3.78185 34.6899 2.41066Z" fill="black"/>
</svg>
