<svg width="52" height="50" viewBox="0 0 52 50" fill="none" xmlns="http://www.w3.org/2000/svg">
<path fill-rule="evenodd" clip-rule="evenodd" d="M15.9018 4.07716V37.1364C14.4825 37.2903 12.988 37.7891 11.0191 38.4462C10.9094 38.4828 10.7983 38.5199 10.6857 38.5575L10.6855 38.5575C8.78626 39.1906 7.526 39.6074 6.56335 39.8086C5.62201 40.0053 5.29926 39.9167 5.15531 39.8526C4.90481 39.7412 4.68024 39.5793 4.49584 39.3774L4.49572 39.3773C4.38942 39.261 4.20331 38.9828 4.09225 38.0275C3.97867 37.0506 3.97548 35.7233 3.97548 33.7213V12.1787C3.97548 10.75 3.97849 9.84539 4.05645 9.16246C4.12857 8.53069 4.24655 8.29557 4.35046 8.15128C4.35052 8.15119 4.35059 8.1511 4.35066 8.15101C4.45478 8.00667 4.64063 7.82035 5.21715 7.55215C5.84036 7.26222 6.69757 6.97331 8.05285 6.52153C8.05287 6.52153 8.05284 6.52154 8.05285 6.52153L11.1399 5.49256C13.489 4.70952 14.8827 4.26397 15.9018 4.07716ZM19.8772 37.6143C21.2845 38.1237 22.6444 39.0311 24.4687 40.2486C24.5642 40.3123 24.661 40.3769 24.7591 40.4423C24.7591 40.4423 24.7591 40.4423 24.7591 40.4423L28.4226 42.8845C29.9209 43.8834 30.9787 44.5772 31.8035 45.0538V12.3857C30.3965 11.8765 29.0369 10.9693 27.2132 9.75232C27.1173 9.68835 27.0201 9.62353 26.9217 9.55787L26.9216 9.55781L23.2582 7.1154C23.2581 7.11537 23.2581 7.11535 23.2581 7.11533C21.7598 6.11656 20.702 5.42287 19.8772 4.9463V37.6143ZM35.7789 12.8637C37.1987 12.7098 38.6937 12.2107 40.6635 11.5532C40.7725 11.5168 40.8831 11.4799 40.9951 11.4425C42.8944 10.8094 44.1547 10.3927 45.1173 10.1916C46.0586 9.99486 46.3814 10.0835 46.5255 10.1475C46.7757 10.2588 47.0002 10.4207 47.1849 10.6228C47.2912 10.7392 47.4774 11.0174 47.5885 11.9726C47.702 12.9495 47.7052 14.2769 47.7052 16.2789V37.8213C47.7052 39.25 47.7022 40.1546 47.6243 40.8375C47.5521 41.4696 47.434 41.7046 47.3301 41.8488L47.3299 41.849C47.2259 41.9933 47.0404 42.1796 46.4636 42.448C45.8404 42.7379 44.9832 43.0268 43.6278 43.4785L40.5409 44.5074L40.5408 44.5074C38.1917 45.2904 36.798 45.736 35.7789 45.9228V12.8637ZM34.6269 12.9088C34.6269 12.9088 34.6269 12.9088 34.6269 12.9088ZM9.88279 1.72113C9.88278 1.72113 9.8828 1.72113 9.88279 1.72113L6.79576 2.75009L6.69704 2.783C5.46962 3.19207 4.39382 3.55061 3.54031 3.94767C2.61765 4.3769 1.77215 4.92973 1.12567 5.82646L1.12548 5.82673C0.479148 6.72358 0.222079 7.70056 0.106669 8.71157C-9.2616e-05 9.64679 -2.46765e-05 10.7807 5.29686e-05 12.0745V33.8403C-1.49709e-05 35.6914 -6.83519e-05 37.2525 0.143415 38.4866C0.292479 39.7687 0.626615 41.0363 1.56082 42.0588L3.02827 40.718L1.56071 42.0587C1.56074 42.0587 1.56078 42.0587 1.56082 42.0588C2.11529 42.6657 2.78913 43.151 3.53932 43.4848C4.80479 44.0478 6.11304 43.964 7.37654 43.6999C8.59279 43.4458 10.0739 42.952 11.83 42.3665L11.9426 42.329L11.3141 40.4432L11.9427 42.3289C14.9123 41.3392 15.93 41.0307 16.9178 41.0643L16.986 39.0778L16.9182 41.0643C17.3123 41.0779 17.7036 41.1302 18.0861 41.2207L18.0864 41.2208C19.0485 41.4482 19.949 42.0134 22.5539 43.75L22.554 43.7501L26.2175 46.1923C26.3434 46.2763 26.4676 46.3592 26.5901 46.441C29.403 48.3185 31.3595 49.6244 33.6467 49.9306C35.9339 50.237 38.1651 49.4919 41.3727 48.4208C41.5125 48.374 41.6543 48.3267 41.7979 48.2788L44.8848 47.25L44.9837 47.217C46.2111 46.808 47.2869 46.4495 48.1404 46.0524C49.0631 45.6232 49.9086 45.0703 50.555 44.1734C51.2015 43.2765 51.4586 42.2995 51.574 41.2885C51.6808 40.3532 51.6807 39.2192 51.6807 37.9255L51.6807 16.1598C51.6807 14.3088 51.6808 12.7476 51.5373 11.5135C51.3882 10.2313 51.054 8.96379 50.1198 7.9413M9.88279 1.72113C10.0262 1.67333 10.1677 1.62608 10.3073 1.57946C13.5154 0.508125 15.7465 -0.236948 18.0338 0.0693587C20.3211 0.375658 22.2776 1.68148 25.0908 3.5591C25.2133 3.64086 25.3374 3.72369 25.4632 3.80757L29.1267 6.25005C29.1268 6.25007 29.1268 6.25009 29.1268 6.25011C31.7317 7.98659 32.6322 8.55186 33.5942 8.77925C33.9775 8.86986 34.3688 8.92227 34.7625 8.93571C35.7504 8.96946 36.7681 8.66105 39.738 7.6711L39.8511 7.63341C41.6071 7.04801 43.088 6.5543 44.3042 6.30018C45.5677 6.03615 46.8759 5.95235 48.1414 6.51532C48.892 6.84926 49.5656 7.33476 50.1198 7.9413" fill="black"/>
</svg>
