<svg width="70" height="50" viewBox="0 0 70 50" fill="none" xmlns="http://www.w3.org/2000/svg">
<path d="M5.15463 0C2.30833 0 0 2.3082 0 5.15657C0 8.00287 2.30833 10.3091 5.15463 10.3091C8.00094 10.3091 10.3093 8.00287 10.3093 5.15657C10.3093 2.3082 8.00094 0 5.15463 0Z" fill="black"/>
<path d="M5.15463 19.845C2.30833 19.845 0 22.1532 0 25.0015C0 27.8478 2.30833 30.1541 5.15463 30.1541C8.00094 30.1541 10.3093 27.8478 10.3093 25.0015C10.3093 22.1532 8.00094 19.845 5.15463 19.845Z" fill="black"/>
<path d="M5.15463 39.6912C2.30833 39.6912 0 41.9994 0 44.8477C0 47.694 2.30833 50.0003 5.15463 50.0003C8.00094 50.0003 10.3093 47.694 10.3093 44.8477C10.3093 41.9994 8.00094 39.6912 5.15463 39.6912Z" fill="black"/>
<path d="M65.494 1.27808H23.5105C21.0597 1.27808 19.0723 3.01377 19.0723 5.15613C19.0723 7.29669 21.0595 9.03226 23.5105 9.03226H65.494C67.9447 9.03226 69.9322 7.29669 69.9322 5.15613C69.9322 3.01377 67.9447 1.27808 65.494 1.27808Z" fill="black"/>
<path d="M65.494 21.748H23.5105C21.0597 21.748 19.0723 23.4836 19.0723 25.6261C19.0723 27.7667 21.0595 29.5022 23.5105 29.5022H65.494C67.9447 29.5022 69.9322 27.7667 69.9322 25.6261C69.9322 23.4836 67.9447 21.748 65.494 21.748Z" fill="black"/>
<path d="M65.494 42.2168H23.5105C21.0597 42.2168 19.0723 43.9524 19.0723 46.0929C19.0723 48.2334 21.0595 49.9689 23.5105 49.9689H65.494C67.9447 49.9689 69.9322 48.2334 69.9322 46.0929C69.9322 43.9522 67.9447 42.2168 65.494 42.2168Z" fill="black"/>
</svg>
