<svg width="158" height="152" viewBox="0 0 158 152" fill="none" xmlns="http://www.w3.org/2000/svg">
<path d="M115.608 62.1853H112.772C112.542 62.2518 112.335 62.3604 112.105 62.4059C106.14 63.369 101.43 68.5769 101.033 74.6848C100.576 81.5142 104.286 87.293 110.33 89.1737C111.124 89.4154 111.958 89.5905 112.769 89.8076H115.604C115.791 89.7411 115.958 89.6325 116.168 89.6115C121.672 88.6694 125.862 84.5122 127.05 78.821C127.133 78.3832 127.26 77.9454 127.363 77.5077V74.5307C127.3 74.3346 127.197 74.135 127.177 73.9389C126.303 68.2477 122.443 63.9119 117.086 62.5985C116.565 62.4654 116.085 62.3148 115.604 62.1818L115.608 62.1853ZM35.4627 89.8111H38.2983C38.5284 89.7446 38.7353 89.636 38.9654 89.615C44.9701 88.6308 49.6603 83.3985 50.0373 77.2275C50.4543 70.4191 46.7014 64.6614 40.6334 62.8017C39.8628 62.56 39.0688 62.3849 38.2983 62.1888H35.4627C35.2759 62.2553 35.1091 62.3639 34.9223 62.4094C29.5015 63.4601 25.9554 66.7662 24.2675 72.2823C24.0373 73.0037 23.9139 73.7707 23.7271 74.5132V77.4901C23.7904 77.6863 23.8938 77.8859 23.9139 78.082C24.8112 83.7942 28.6475 88.109 34.005 89.4224C34.5053 89.5519 34.9857 89.685 35.4627 89.8181V89.8111ZM74.1191 89.8111H76.9546C77.1848 89.7446 77.3917 89.636 77.6218 89.5905C83.6064 88.6063 88.4235 83.1778 88.6737 77.0489C88.9639 70.1529 85.0042 64.3111 78.8961 62.6686C78.249 62.4935 77.6052 62.3393 76.958 62.1888H74.1225C73.8923 62.2553 73.6855 62.3639 73.4553 62.4094C67.4707 63.3725 62.6537 68.822 62.3834 74.951C62.0699 81.847 66.0529 87.6887 72.161 89.3313C72.8281 89.5064 73.4753 89.6605 74.1225 89.8111H74.1191Z" fill="black"/>
<path fill-rule="evenodd" clip-rule="evenodd" d="M76 138.182C110.342 138.182 138.182 110.342 138.182 76C138.182 41.6579 110.342 13.8182 76 13.8182C41.6579 13.8182 13.8182 41.6579 13.8182 76C13.8182 110.342 41.6579 138.182 76 138.182ZM76 152C117.974 152 152 117.974 152 76C152 34.0264 117.974 0 76 0C34.0264 0 0 34.0264 0 76C0 117.974 34.0264 152 76 152Z" fill="black"/>
</svg>
