<svg width="50" height="50" viewBox="0 0 50 50" fill="none" xmlns="http://www.w3.org/2000/svg">
<path fill-rule="evenodd" clip-rule="evenodd" d="M25 5C13.9543 5 5 13.9543 5 25C5 36.0458 13.9543 45 25 45C36.0458 45 45 36.0458 45 25C45 13.9543 36.0458 5 25 5ZM0 25C0 11.1929 11.1929 0 25 0C38.8072 0 50 11.1929 50 25C50 38.8072 38.8072 50 25 50C11.1929 50 0 38.8072 0 25ZM25 7.5C26.3807 7.5 27.5 8.61929 27.5 10V25.4267C30.413 26.4563 32.5 29.2344 32.5 32.5C32.5 36.6422 29.1422 40 25 40C20.8578 40 17.5 36.6422 17.5 32.5C17.5 29.2344 19.587 26.4563 22.5 25.4267V10C22.5 8.61929 23.6193 7.5 25 7.5ZM12.5 15C12.5 13.6193 13.6193 12.5 15 12.5H15.025C16.4057 12.5 17.525 13.6193 17.525 15C17.525 16.3807 16.4057 17.5 15.025 17.5H15C13.6193 17.5 12.5 16.3807 12.5 15ZM32.5 15C32.5 13.6193 33.6193 12.5 35 12.5H35.025C36.4057 12.5 37.525 13.6193 37.525 15C37.525 16.3807 36.4057 17.5 35.025 17.5H35C33.6193 17.5 32.5 16.3807 32.5 15ZM7.5 25C7.5 23.6193 8.61929 22.5 10 22.5H10.025C11.4057 22.5 12.525 23.6193 12.525 25C12.525 26.3807 11.4057 27.5 10.025 27.5H10C8.61929 27.5 7.5 26.3807 7.5 25ZM37.5 25C37.5 23.6193 38.6193 22.5 40 22.5H40.025C41.4057 22.5 42.525 23.6193 42.525 25C42.525 26.3807 41.4057 27.5 40.025 27.5H40C38.6193 27.5 37.5 26.3807 37.5 25ZM25 30C23.6192 30 22.5 31.1192 22.5 32.5C22.5 33.8808 23.6192 35 25 35C26.3808 35 27.5 33.8808 27.5 32.5C27.5 31.1192 26.3808 30 25 30Z" fill="black"/>
</svg>
