<svg width="50" height="50" viewBox="0 0 50 50" fill="none" xmlns="http://www.w3.org/2000/svg">
<path fill-rule="evenodd" clip-rule="evenodd" d="M25 0.714286C24.0643 0.714286 23.3056 1.47288 23.3056 2.40864V6.92691C23.3056 7.86267 24.0643 8.62126 25 8.62126C25.9357 8.62126 26.6944 7.86267 26.6944 6.92691V2.40864C26.6944 1.47288 25.9357 0.714286 25 0.714286ZM43.8217 6.28552C43.1902 5.5949 42.1185 5.54692 41.4279 6.17835L36.4081 10.768C35.7174 11.3994 35.6694 12.4711 36.3009 13.1617C36.9323 13.8524 38.004 13.9003 38.6947 13.2689L43.7145 8.6793C44.4051 8.04787 44.4531 6.97614 43.8217 6.28552ZM6.17823 6.28552C5.5468 6.97614 5.59493 8.04787 6.28554 8.6793L11.3053 13.2689C11.996 13.9003 13.0677 13.8524 13.6991 13.1617C14.3306 12.4711 14.2827 11.3994 13.592 10.768L8.57202 6.17835C7.8814 5.54692 6.80989 5.5949 6.17823 6.28552ZM25 15.3987C30.3027 15.3987 34.6013 19.6973 34.6013 25C34.6013 30.3026 30.3027 34.6013 25 34.6013C19.6974 34.6013 15.3987 30.3026 15.3987 25C15.3987 19.6973 19.6974 15.3987 25 15.3987ZM37.99 25C37.99 17.8258 32.1742 12.01 25 12.01C17.8259 12.01 12.01 17.8258 12.01 25C12.01 32.1741 17.8259 37.99 25 37.99C32.1742 37.99 37.99 32.1741 37.99 25ZM49.2857 25C49.2857 24.0643 48.5271 23.3056 47.5914 23.3056H43.0731C42.1373 23.3056 41.3787 24.0643 41.3787 25C41.3787 25.9357 42.1373 26.6944 43.0731 26.6944H47.5914C48.5271 26.6944 49.2857 25.9357 49.2857 25ZM8.62126 25C8.62126 24.0643 7.86264 23.3056 6.92691 23.3056H2.40864C1.4729 23.3056 0.714286 24.0643 0.714286 25C0.714286 25.9357 1.4729 26.6944 2.40864 26.6944H6.92691C7.86264 26.6944 8.62126 25.9357 8.62126 25ZM13.6467 36.3526C12.985 35.6909 11.9121 35.6909 11.2504 36.3526L6.23064 41.3731C5.56894 42.0348 5.56917 43.1077 6.23087 43.7694C6.89257 44.4311 7.96544 44.4308 8.62691 43.7691L13.6467 38.7487C14.3084 38.087 14.3084 37.0143 13.6467 36.3526ZM36.3529 36.3528C35.6912 37.0145 35.6912 38.0874 36.3529 38.7491L41.3732 43.7694C42.0349 44.4311 43.1077 44.4311 43.7694 43.7694C44.4311 43.1077 44.4311 42.0348 43.7694 41.3733L38.7491 36.3528C38.0874 35.6911 37.0146 35.6911 36.3529 36.3528ZM25 41.3787C24.0643 41.3787 23.3056 42.1374 23.3056 43.0731V47.5914C23.3056 48.5271 24.0643 49.2857 25 49.2857C25.9357 49.2857 26.6944 48.5271 26.6944 47.5914V43.0731C26.6944 42.1374 25.9357 41.3787 25 41.3787Z" fill="#1C274C"/>
<path fill-rule="evenodd" clip-rule="evenodd" d="M22.5914 2.40864C22.5914 1.07839 23.6698 0 25 0C26.3302 0 27.4086 1.07839 27.4086 2.40864V6.92691C27.4086 8.25716 26.3302 9.33555 25 9.33555C23.6698 9.33555 22.5914 8.25716 22.5914 6.92691V2.40864ZM25 1.42857C24.4587 1.42857 24.0199 1.86738 24.0199 2.40864V6.92691C24.0199 7.46817 24.4587 7.90698 25 7.90698C25.5413 7.90698 25.9801 7.46817 25.9801 6.92691V2.40864C25.9801 1.86738 25.5413 1.42857 25 1.42857ZM9.054 5.65118C9.054 5.65119 9.05399 5.65118 9.054 5.65118L14.074 10.2408C15.0558 11.1385 15.1239 12.662 14.2263 13.6437C13.3287 14.6255 11.8051 14.6937 10.8234 13.7961L5.80356 9.20646C4.82188 8.30891 4.75338 6.78538 5.65107 5.80354C6.54885 4.82196 8.07218 4.75352 9.054 5.65118ZM6.70531 6.76759C6.34023 7.16699 6.368 7.78686 6.76752 8.15214L11.7873 12.7418C12.1868 13.107 12.8067 13.0792 13.172 12.6798C13.5372 12.2802 13.5095 11.6603 13.1101 11.2952C13.1101 11.2952 13.1101 11.2952 13.1101 11.2952L8.09004 6.70551C7.69066 6.34036 7.07085 6.36803 6.70531 6.76759ZM40.9459 5.65118C41.9277 4.75356 43.4512 4.82178 44.3488 5.80354C45.2464 6.7853 45.1782 8.30884 44.1965 9.20646L39.1766 13.7961C38.1949 14.6937 36.6713 14.6255 35.7737 13.6437C34.8761 12.662 34.9443 11.1384 35.9261 10.2408L40.9459 5.65118ZM43.2945 6.7675C42.9293 6.36802 42.3093 6.34027 41.9099 6.70551L36.89 11.2951C36.4906 11.6604 36.4628 12.2803 36.828 12.6798C37.1933 13.0792 37.8132 13.107 38.2127 12.7418L43.2325 8.15214C43.632 7.7869 43.6597 7.16697 43.2945 6.7675ZM11.2957 25C11.2957 17.4313 17.4314 11.2957 25 11.2957C32.5687 11.2957 38.7043 17.4313 38.7043 25C38.7043 32.5686 32.5687 38.7043 25 38.7043C17.4314 38.7043 11.2957 32.5686 11.2957 25ZM25 12.7243C18.2204 12.7243 12.7243 18.2203 12.7243 25C12.7243 31.7796 18.2204 37.2757 25 37.2757C31.7797 37.2757 37.2757 31.7796 37.2757 25C37.2757 18.2203 31.7797 12.7243 25 12.7243ZM25 16.113C20.0918 16.113 16.113 20.0918 16.113 25C16.113 29.9082 20.0918 33.887 25 33.887C29.9082 33.887 33.887 29.9082 33.887 25C33.887 20.0918 29.9082 16.113 25 16.113ZM14.6844 25C14.6844 19.3028 19.3029 14.6844 25 14.6844C30.6972 14.6844 35.3156 19.3028 35.3156 25C35.3156 30.6971 30.6972 35.3156 25 35.3156C19.3029 35.3156 14.6844 30.6971 14.6844 25ZM0 25C0 23.6698 1.07841 22.5914 2.40864 22.5914H6.92691C8.25713 22.5914 9.33555 23.6698 9.33555 25C9.33555 26.3302 8.25713 27.4086 6.92691 27.4086H2.40864C1.07841 27.4086 0 26.3302 0 25ZM2.40864 24.0199C1.86739 24.0199 1.42857 24.4588 1.42857 25C1.42857 25.5412 1.86739 25.9801 2.40864 25.9801H6.92691C7.46816 25.9801 7.90698 25.5412 7.90698 25C7.90698 24.4588 7.46816 24.0199 6.92691 24.0199H2.40864ZM40.6645 25C40.6645 23.6698 41.7428 22.5914 43.0731 22.5914H47.5914C48.9216 22.5914 50 23.6698 50 25C50 26.3302 48.9216 27.4086 47.5914 27.4086H43.0731C41.7428 27.4086 40.6645 26.3302 40.6645 25ZM43.0731 24.0199C42.5318 24.0199 42.093 24.4587 42.093 25C42.093 25.5413 42.5318 25.9801 43.0731 25.9801H47.5914C48.1326 25.9801 48.5714 25.5413 48.5714 25C48.5714 24.4587 48.1326 24.0199 47.5914 24.0199H43.0731ZM10.7454 35.8475C11.686 34.9069 13.2111 34.9069 14.1518 35.8475C15.0924 36.7882 15.0924 38.3131 14.1518 39.2537L9.13207 44.2741C8.19171 45.2148 6.66652 45.2152 5.7258 44.2744C4.78527 43.3339 4.78479 41.8088 5.72557 40.868L10.7454 35.8475ZM11.7555 36.8577L6.73575 41.8781C6.35312 42.2608 6.35307 42.8814 6.73595 43.2643C7.11862 43.647 7.73916 43.6469 8.12175 43.2641L13.1416 38.2436C13.5244 37.8609 13.5244 37.2404 13.1416 36.8577C12.7589 36.4749 12.1383 36.4749 11.7555 36.8577ZM35.8478 35.8478C36.7885 34.9071 38.3135 34.9071 39.2542 35.8478L44.2744 40.8682C44.2744 40.8682 44.2744 40.8681 44.2744 40.8682C45.2151 41.8087 45.215 43.3339 44.2745 44.2744C43.3338 45.2151 41.8088 45.2151 40.8682 44.2744L35.8478 39.2542C34.9072 38.3135 34.9072 36.7884 35.8478 35.8478ZM38.244 36.8579C37.8613 36.4752 37.2407 36.4752 36.858 36.8579C36.4752 37.2407 36.4752 37.8613 36.858 38.244L41.8783 43.2643C42.261 43.647 42.8816 43.647 43.2643 43.2643C43.6471 42.8815 43.647 42.2609 43.2644 41.8785L38.244 36.8579ZM22.5914 43.0731C22.5914 41.7429 23.6698 40.6645 25 40.6645C26.3302 40.6645 27.4086 41.7429 27.4086 43.0731V47.5914C27.4086 48.9216 26.3302 50 25 50C23.6698 50 22.5914 48.9216 22.5914 47.5914V43.0731ZM25 42.093C24.4588 42.093 24.0199 42.5318 24.0199 43.0731V47.5914C24.0199 48.1326 24.4588 48.5714 25 48.5714C25.5412 48.5714 25.9801 48.1326 25.9801 47.5914V43.0731C25.9801 42.5318 25.5412 42.093 25 42.093Z" fill="black"/>
</svg>
