<svg width="50" height="50" viewBox="0 0 50 50" fill="none" xmlns="http://www.w3.org/2000/svg">
<path fill-rule="evenodd" clip-rule="evenodd" d="M25 0C26.3807 0 27.5 1.11929 27.5 2.5V13.9645L30.7322 10.7322C31.7085 9.75592 33.2915 9.75592 34.2678 10.7322C35.2441 11.7085 35.2441 13.2915 34.2678 14.2678L26.7678 21.7678C25.7915 22.7441 24.2085 22.7441 23.2322 21.7678L15.7322 14.2678C14.7559 13.2915 14.7559 11.7085 15.7322 10.7322C16.7085 9.75592 18.2915 9.75592 19.2678 10.7322L22.5 13.9645V2.5C22.5 1.11929 23.6193 0 25 0ZM5.73223 20.7322C6.70854 19.7559 8.29146 19.7559 9.26777 20.7322L11.7678 23.2322C12.7441 24.2085 12.7441 25.7915 11.7678 26.7678C10.7915 27.7441 9.20854 27.7441 8.23223 26.7678L5.73223 24.2678C4.75592 23.2915 4.75592 21.7085 5.73223 20.7322ZM40.7322 20.7322C41.7085 19.7559 43.2915 19.7559 44.2678 20.7322C45.2441 21.7085 45.2441 23.2915 44.2678 24.2678L41.7678 26.7678C40.7915 27.7441 39.2085 27.7441 38.2322 26.7678C37.2559 25.7915 37.2559 24.2085 38.2322 23.2322L40.7322 20.7322ZM10.2074 37.5H2.5C1.11929 37.5 0 38.6193 0 40C0 41.3807 1.11929 42.5 2.5 42.5H47.5C48.8807 42.5 50 41.3807 50 40C50 38.6193 48.8807 37.5 47.5 37.5H39.7926C38.6024 30.4058 32.4324 25 25 25C17.5675 25 11.3976 30.4058 10.2074 37.5ZM15.315 37.5H34.6849C33.5748 33.187 29.6595 30 25 30C20.3404 30 16.4252 33.187 15.315 37.5ZM5 47.5C5 46.1193 6.11929 45 7.5 45H42.5C43.8807 45 45 46.1193 45 47.5C45 48.8807 43.8807 50 42.5 50H7.5C6.11929 50 5 48.8807 5 47.5Z" fill="black"/>
</svg>
