<svg width="238" height="238" viewBox="0 0 238 238" fill="none" xmlns="http://www.w3.org/2000/svg">
<path fill-rule="evenodd" clip-rule="evenodd" d="M101.15 23.8C58.4307 23.8 23.8 58.4307 23.8 101.15C23.8 143.869 58.4308 178.5 101.15 178.5C143.869 178.5 178.5 143.869 178.5 101.15C178.5 58.4308 143.869 23.8 101.15 23.8ZM0 101.15C0 45.2863 45.2863 0 101.15 0C157.013 0 202.3 45.2863 202.3 101.15C202.3 124.835 194.159 146.619 180.523 163.856L234.502 217.673C239.156 222.313 239.167 229.848 234.527 234.502C229.887 239.156 222.352 239.167 217.698 234.527L163.675 180.666C146.466 194.216 124.752 202.3 101.15 202.3C45.2863 202.3 0 157.013 0 101.15Z" fill="#1E1E20"/>
</svg>
