<svg width="54" height="50" viewBox="0 0 54 50" fill="none" xmlns="http://www.w3.org/2000/svg">
<path d="M42.6964 39.9998C40.8255 39.9998 38.9545 39.4284 37.0835 38.2855C35.4799 37.1427 33.6089 37.1427 32.0052 38.2855C28.7979 40.5712 24.2541 40.5712 21.0468 38.2855C19.4431 37.1427 17.5721 37.1427 15.9684 38.2855C12.7611 40.5712 8.21734 40.5712 5.00998 38.2855L1.00078 35.4284C-0.0683344 34.5712 -0.335614 32.857 0.466225 31.4284C1.26806 29.9998 2.87174 29.7141 4.20814 30.5713L8.21733 33.4284C9.82101 34.5712 11.692 34.5712 13.2956 33.4284C16.503 31.1427 21.0468 31.1427 24.2541 33.4284C25.8578 34.5712 27.7288 34.5712 29.3324 33.4284C32.5398 31.1427 37.0835 31.1427 40.2909 33.4284C41.8946 34.5712 43.7655 34.5712 45.3692 33.4284L49.3784 30.5713C50.7148 29.7141 52.3185 29.9998 53.1203 31.4284C53.9222 32.857 53.6549 34.5712 52.3185 35.4284L48.3093 38.2855C46.4383 39.4284 44.5674 39.9998 42.6964 39.9998Z" fill="black"/>
<path d="M26.6579 49.9996C24.7869 49.9996 22.916 49.4281 21.045 48.2853C19.4413 47.1424 17.5704 47.1424 15.9667 48.2853C14.8976 48.8567 13.2939 48.571 12.492 47.4281C11.6902 46.2853 11.9575 44.2853 13.2939 43.4282C16.5012 41.1424 21.045 41.1424 24.2524 43.4282C25.856 44.571 27.727 44.571 29.3307 43.4282C32.538 41.1424 37.0818 41.1424 40.2891 43.4282C41.6255 44.2853 41.8928 45.9996 41.091 47.4281C40.2891 48.8567 38.6855 49.1424 37.3491 48.2853C35.7454 47.1424 33.8744 47.1424 32.2707 48.2853C30.3998 49.1424 28.5288 49.9996 26.6579 49.9996Z" fill="black"/>
<path d="M26.6579 29.9996C24.7869 29.9996 22.916 29.4281 21.045 28.2853C19.4413 27.1424 17.5704 27.1424 15.9667 28.2853C14.8976 28.8567 13.2939 28.571 12.492 27.4281C11.6902 25.9996 11.9575 24.2853 13.2939 23.4282C16.5012 21.1424 21.045 21.1424 24.2524 23.4282C25.856 24.571 27.727 24.571 29.3307 23.4282C32.538 21.1424 37.0818 21.1424 40.2891 23.4282C41.6255 24.2853 41.8928 25.9996 41.091 27.4281C40.2891 28.8567 38.6855 29.1424 37.3491 28.2853C35.7454 27.1424 33.8744 27.1424 32.2707 28.2853C30.3998 29.1424 28.5288 29.9996 26.6579 29.9996Z" fill="black"/>
<path d="M32.0066 11.4286C31.2047 11.4286 30.6702 11.1428 30.1356 10.5714L26.661 6.85714L23.1863 10.5714C22.1172 11.7143 20.5135 11.7143 19.4444 10.5714C18.3753 9.42856 18.3753 7.71428 19.4444 6.57142L24.79 0.857142C25.8591 -0.285714 27.4628 -0.285714 28.5319 0.857142L33.8775 6.57142C34.9466 7.71428 34.9466 9.42856 33.8775 10.5714C33.343 11.1428 32.8084 11.4286 32.0066 11.4286Z" fill="black"/>
<path d="M26.6621 20C25.0584 20 23.9893 18.8571 23.9893 17.1428V2.85714C23.9893 1.14286 25.0584 0 26.6621 0C28.2657 0 29.3349 1.14286 29.3349 2.85714V17.1428C29.3349 18.8571 28.2657 20 26.6621 20Z" fill="black"/>
</svg>
