<svg width="65" height="54" viewBox="0 0 65 54" fill="none" xmlns="http://www.w3.org/2000/svg">
<path d="M22.227 16.6112C21.5088 16.4493 20.7684 16.3657 20.0191 16.3657C17.4334 16.3657 14.9536 17.3614 13.1253 19.1337L12.5617 19.6799C11.6435 20.57 10.3982 21.07 9.0996 21.07C7.80103 21.07 6.55566 20.57 5.63745 19.6799L4.1424 18.2307C3.19476 17.3122 1.65835 17.3122 0.710722 18.2307C-0.236908 19.1493 -0.236907 20.6386 0.710723 21.5572L2.20577 23.0064C4.03413 24.7787 6.51392 25.7743 9.0996 25.7743C11.6853 25.7743 14.1651 24.7787 15.9934 23.0064L16.557 22.4601C17.4752 21.57 18.7206 21.07 20.0191 21.07C20.7594 21.07 21.4825 21.2325 22.1375 21.5372C22.0744 20.8584 22.0422 20.171 22.0422 19.4762C22.0422 18.5057 22.105 17.5495 22.227 16.6112Z" fill="black"/>
<path d="M34.1856 39.3477C31.2381 37.7851 28.6767 35.6208 26.676 33.0245C24.8732 31.3912 22.4948 30.4786 20.0191 30.4786C17.4336 30.4786 14.9539 31.474 13.1254 33.2465L12.5617 33.7929C11.6435 34.6829 10.3982 35.1829 9.0996 35.1829C7.80096 35.1829 6.55567 34.6829 5.63754 33.7929L4.14237 32.3436C3.19472 31.425 1.65831 31.4251 0.710695 32.3436C-0.23692 33.2622 -0.236895 34.7515 0.71075 35.6701L2.20568 37.1191C4.03412 38.8916 6.51404 39.8872 9.0996 39.8872C11.6851 39.8872 14.1648 38.8918 15.9933 37.1194L16.557 36.573C17.4752 35.6829 18.7205 35.1829 20.0191 35.1829C21.3178 35.1829 22.5629 35.6828 23.4813 36.573L24.0448 37.1192C25.8733 38.8916 28.3528 39.8872 30.9386 39.8872C32.0554 39.8872 33.1523 39.7015 34.1856 39.3477Z" fill="black"/>
<path d="M16.557 50.6858C17.4752 49.7958 18.7205 49.2958 20.0191 49.2958C21.3178 49.2958 22.5629 49.7957 23.4813 50.6859L24.0448 51.2321C25.8733 53.0045 28.3528 54.0001 30.9386 54.0001C33.5244 54.0001 36.004 53.0045 37.8325 51.2321L38.3959 50.6859C39.3143 49.7957 40.5595 49.2958 41.8581 49.2958C43.1568 49.2958 44.402 49.7957 45.3203 50.6859L46.8153 52.1351C47.763 53.0537 49.2994 53.0537 50.247 52.1351C51.1946 51.2165 51.1946 49.7272 50.247 48.8086L48.752 47.3595C46.9235 45.5871 44.4439 44.5915 41.8581 44.5915C39.2724 44.5915 36.7928 45.5871 34.9643 47.3595L34.4008 47.9057C33.4825 48.7959 32.2373 49.2958 30.9386 49.2958C29.64 49.2958 28.3948 48.7959 27.4764 47.9057L26.913 47.3595C25.0845 45.5871 22.6049 44.5915 20.0191 44.5915C17.4336 44.5915 14.9539 45.5869 13.1254 47.3594L12.5617 47.9057C11.6435 48.7958 10.3982 49.2958 9.0996 49.2958C7.80096 49.2958 6.55567 48.7958 5.63754 47.9057L4.14237 46.4565C3.19472 45.5379 1.65831 45.5379 0.710695 46.4565C-0.23692 47.3751 -0.236895 48.8644 0.71075 49.783L2.20568 51.232C4.03412 53.0045 6.51404 54.0001 9.0996 54.0001C11.6851 54.0001 14.1648 53.0047 15.9933 51.2322L16.557 50.6858Z" fill="black"/>
<path fill-rule="evenodd" clip-rule="evenodd" d="M46 4.45714C45.4011 4.45714 44.9156 4.94264 44.9156 5.54153V8.43322C44.9156 9.03211 45.4011 9.51761 46 9.51761C46.5989 9.51761 47.0844 9.03211 47.0844 8.43322V5.54153C47.0844 4.94264 46.5989 4.45714 46 4.45714ZM58.0459 8.02273C57.6417 7.58074 56.9558 7.55003 56.5138 7.95414L53.3012 10.8915C52.8592 11.2956 52.8284 11.9815 53.2326 12.4235C53.6367 12.8655 54.3226 12.8962 54.7646 12.4921L57.9773 9.55475C58.4193 9.15064 58.45 8.46473 58.0459 8.02273ZM33.9541 8.02273C33.55 8.46473 33.5808 9.15064 34.0227 9.55475L37.2354 12.4921C37.6774 12.8962 38.3633 12.8655 38.7674 12.4235C39.1716 11.9815 39.1409 11.2956 38.6989 10.8915L35.4861 7.95414C35.0441 7.55003 34.3583 7.58074 33.9541 8.02273ZM46 13.8551C49.3937 13.8551 52.1449 16.6063 52.1449 20C52.1449 23.3937 49.3937 26.1449 46 26.1449C42.6063 26.1449 39.8551 23.3937 39.8551 20C39.8551 16.6063 42.6063 13.8551 46 13.8551ZM54.3136 20C54.3136 15.4085 50.5915 11.6864 46 11.6864C41.4086 11.6864 37.6864 15.4085 37.6864 20C37.6864 24.5914 41.4086 28.3136 46 28.3136C50.5915 28.3136 54.3136 24.5914 54.3136 20ZM61.5429 20C61.5429 19.4011 61.0574 18.9156 60.4585 18.9156H57.5668C56.9679 18.9156 56.4824 19.4011 56.4824 20C56.4824 20.5989 56.9679 21.0844 57.5668 21.0844H60.4585C61.0574 21.0844 61.5429 20.5989 61.5429 20ZM35.5176 20C35.5176 19.4011 35.0321 18.9156 34.4332 18.9156H31.5415C30.9427 18.9156 30.4571 19.4011 30.4571 20C30.4571 20.5989 30.9427 21.0844 31.5415 21.0844H34.4332C35.0321 21.0844 35.5176 20.5989 35.5176 20ZM38.7339 27.2657C38.3104 26.8422 37.6238 26.8422 37.2003 27.2657L33.9876 30.4788C33.5641 30.9023 33.5643 31.5889 33.9878 32.0124C34.4112 32.4359 35.0979 32.4357 35.5212 32.0122L38.7339 28.7991C39.1574 28.3756 39.1574 27.6892 38.7339 27.2657ZM53.2659 27.2658C52.8424 27.6893 52.8424 28.3759 53.2659 28.7994L56.4789 32.0124C56.9023 32.4359 57.5889 32.4359 58.0124 32.0124C58.4359 31.5889 58.4359 30.9023 58.0124 30.4789L54.7994 27.2658C54.3759 26.8423 53.6893 26.8423 53.2659 27.2658ZM46 30.4824C45.4011 30.4824 44.9156 30.9679 44.9156 31.5668V34.4585C44.9156 35.0573 45.4011 35.5429 46 35.5429C46.5989 35.5429 47.0844 35.0573 47.0844 34.4585V31.5668C47.0844 30.9679 46.5989 30.4824 46 30.4824Z" fill="#1C274C"/>
<path fill-rule="evenodd" clip-rule="evenodd" d="M44.4585 5.54153C44.4585 4.69017 45.1487 4 46 4C46.8513 4 47.5415 4.69017 47.5415 5.54153V8.43322C47.5415 9.28458 46.8513 9.97475 46 9.97475C45.1487 9.97475 44.4585 9.28458 44.4585 8.43322V5.54153ZM46 4.91429C45.6536 4.91429 45.3728 5.19512 45.3728 5.54153V8.43322C45.3728 8.77963 45.6536 9.06047 46 9.06047C46.3464 9.06047 46.6272 8.77963 46.6272 8.43322V5.54153C46.6272 5.19512 46.3464 4.91429 46 4.91429ZM35.7946 7.61676C35.7946 7.61676 35.7946 7.61676 35.7946 7.61676L39.0074 10.5541C39.6357 11.1286 39.6793 12.1037 39.1048 12.732C38.5303 13.3603 37.5553 13.404 36.927 12.8295L33.7143 9.89214C33.086 9.31771 33.0422 8.34264 33.6167 7.71426C34.1913 7.08605 35.1662 7.04225 35.7946 7.61676ZM34.2914 8.33126C34.0577 8.58688 34.0755 8.98359 34.3312 9.21737L37.5439 12.1547C37.7996 12.3885 38.1963 12.3707 38.4301 12.115C38.6638 11.8594 38.6461 11.4626 38.3904 11.2289C38.3904 11.2289 38.3904 11.2289 38.3904 11.2289L35.1776 8.29153C34.922 8.05783 34.5253 8.07554 34.2914 8.33126ZM56.2054 7.61676C56.8337 7.04228 57.8088 7.08594 58.3832 7.71426C58.9577 8.34259 58.9141 9.31766 58.2857 9.89214L55.0731 12.8295C54.4447 13.404 53.4697 13.3603 52.8952 12.732C52.3207 12.1037 52.3644 11.1286 52.9927 10.5541L56.2054 7.61676ZM57.7085 8.3312C57.4747 8.07554 57.078 8.05777 56.8223 8.29152L53.6096 11.2289C53.354 11.4626 53.3362 11.8594 53.5699 12.115C53.8037 12.3707 54.2005 12.3885 54.4561 12.1547L57.6688 9.21737C57.9245 8.98362 57.9422 8.58686 57.7085 8.3312ZM37.2292 20C37.2292 15.156 41.1561 11.2292 46 11.2292C50.844 11.2292 54.7708 15.156 54.7708 20C54.7708 24.8439 50.844 28.7708 46 28.7708C41.1561 28.7708 37.2292 24.8439 37.2292 20ZM46 12.1435C41.661 12.1435 38.1435 15.661 38.1435 20C38.1435 24.339 41.661 27.8565 46 27.8565C50.339 27.8565 53.8565 24.339 53.8565 20C53.8565 15.661 50.339 12.1435 46 12.1435ZM46 14.3123C42.8588 14.3123 40.3123 16.8588 40.3123 20C40.3123 23.1412 42.8588 25.6877 46 25.6877C49.1412 25.6877 51.6877 23.1412 51.6877 20C51.6877 16.8588 49.1412 14.3123 46 14.3123ZM39.398 20C39.398 16.3538 42.3538 13.398 46 13.398C49.6462 13.398 52.602 16.3538 52.602 20C52.602 23.6462 49.6462 26.602 46 26.602C42.3538 26.602 39.398 23.6462 39.398 20ZM30 20C30 19.1487 30.6902 18.4585 31.5415 18.4585H34.4332C35.2846 18.4585 35.9748 19.1487 35.9748 20C35.9748 20.8513 35.2846 21.5415 34.4332 21.5415H31.5415C30.6902 21.5415 30 20.8513 30 20ZM31.5415 19.3728C31.1951 19.3728 30.9143 19.6536 30.9143 20C30.9143 20.3464 31.1951 20.6272 31.5415 20.6272H34.4332C34.7796 20.6272 35.0605 20.3464 35.0605 20C35.0605 19.6536 34.7796 19.3728 34.4332 19.3728H31.5415ZM56.0252 20C56.0252 19.1487 56.7154 18.4585 57.5668 18.4585H60.4585C61.3098 18.4585 62 19.1487 62 20C62 20.8513 61.3098 21.5415 60.4585 21.5415H57.5668C56.7154 21.5415 56.0252 20.8513 56.0252 20ZM57.5668 19.3728C57.2204 19.3728 56.9395 19.6536 56.9395 20C56.9395 20.3464 57.2204 20.6272 57.5668 20.6272H60.4585C60.8049 20.6272 61.0857 20.3464 61.0857 20C61.0857 19.6536 60.8049 19.3728 60.4585 19.3728H57.5668ZM36.877 26.9424C37.479 26.3404 38.4551 26.3404 39.0571 26.9424C39.6592 27.5444 39.6592 28.5204 39.0571 29.1224L35.8445 32.3354C35.2427 32.9375 34.2666 32.9377 33.6645 32.3356C33.0626 31.7337 33.0623 30.7576 33.6644 30.1555L36.877 26.9424ZM37.5235 27.5889L34.3109 30.802C34.066 31.0469 34.066 31.4441 34.311 31.6891C34.5559 31.9341 34.9531 31.934 35.1979 31.6891L38.4106 28.4759C38.6556 28.2309 38.6556 27.8339 38.4106 27.5889C38.1657 27.344 37.7685 27.344 37.5235 27.5889ZM52.9426 26.9426C53.5446 26.3406 54.5207 26.3405 55.1227 26.9426L58.3356 30.1556C58.3356 30.1556 58.3356 30.1556 58.3356 30.1556C58.9377 30.7575 58.9376 31.7337 58.3357 32.3356C57.7337 32.9376 56.7576 32.9377 56.1556 32.3356L52.9426 29.1227C52.3406 28.5207 52.3406 27.5446 52.9426 26.9426ZM54.4762 27.5891C54.2312 27.3441 53.8341 27.3441 53.5891 27.5891C53.3442 27.834 53.3442 28.2312 53.5891 28.4762L56.8021 31.6891C57.0471 31.9341 57.4442 31.9341 57.6892 31.6891C57.9341 31.4442 57.9341 31.047 57.6892 30.8022L54.4762 27.5891ZM44.4585 31.5668C44.4585 30.7154 45.1487 30.0252 46 30.0252C46.8513 30.0252 47.5415 30.7154 47.5415 31.5668V34.4585C47.5415 35.3098 46.8513 36 46 36C45.1487 36 44.4585 35.3098 44.4585 34.4585V31.5668ZM46 30.9395C45.6536 30.9395 45.3728 31.2204 45.3728 31.5668V34.4585C45.3728 34.8049 45.6536 35.0857 46 35.0857C46.3464 35.0857 46.6272 34.8049 46.6272 34.4585V31.5668C46.6272 31.2204 46.3464 30.9395 46 30.9395Z" fill="black"/>
</svg>
