<svg width="64" height="50" viewBox="0 0 64 50" fill="none" xmlns="http://www.w3.org/2000/svg">
<path fill-rule="evenodd" clip-rule="evenodd" d="M42.2241 0.496123C42.7188 0.97623 42.8714 1.69696 42.6119 2.32802C41.9714 3.88543 41.6118 5.60854 41.6118 7.39088C41.6118 14.8918 47.8656 20.9724 55.5801 20.9724C57.4183 20.9724 59.1783 20.6186 60.7896 19.989C61.4385 19.7354 62.1803 19.8827 62.6749 20.3633C63.1696 20.8439 63.3216 21.5651 63.0613 22.1962C60.4852 28.4411 54.2 32.8564 46.8499 32.8564C37.2069 32.8564 29.3895 25.2556 29.3895 15.8795C29.3895 8.73823 33.9238 2.63079 40.3392 0.122614C40.9878 -0.130935 41.7293 0.0160157 42.2241 0.496123ZM38.2704 5.16054C34.9896 7.64681 32.8816 11.525 32.8816 15.8795C32.8816 23.3804 39.1355 29.461 46.8499 29.461C51.3293 29.461 55.3185 27.4107 57.8755 24.2198C57.1243 24.3171 56.358 24.3678 55.5801 24.3678C45.937 24.3678 38.1198 16.767 38.1198 7.39088C38.1198 6.63728 38.1712 5.89218 38.2704 5.16054Z" fill="black"/>
<path d="M22.227 12.6111C21.5088 12.4492 20.7684 12.3656 20.0191 12.3656C17.4334 12.3656 14.9536 13.3613 13.1253 15.1336L12.5617 15.6798C11.6435 16.5699 10.3982 17.0699 9.0996 17.0699C7.80103 17.0699 6.55566 16.5699 5.63745 15.6798L4.14239 14.2306C3.19476 13.3121 1.65835 13.3121 0.710722 14.2306C-0.236908 15.1492 -0.236907 16.6385 0.710723 17.5571L2.20577 19.0063C4.03413 20.7786 6.51392 21.7742 9.0996 21.7742C11.6853 21.7742 14.1651 20.7786 15.9934 19.0063L16.557 18.46C17.4752 17.57 18.7206 17.0699 20.0191 17.0699C20.7595 17.0699 21.4825 17.2324 22.1375 17.5371C22.0744 16.8583 22.0422 16.1709 22.0422 15.4761C22.0422 14.5056 22.105 13.5494 22.227 12.6111Z" fill="black"/>
<path d="M34.1856 35.3476C31.2381 33.785 28.6767 31.6207 26.676 29.0245C24.8732 27.3911 22.4948 26.4785 20.0191 26.4785C17.4336 26.4785 14.9539 27.4739 13.1254 29.2464L12.5617 29.7928C11.6435 30.6828 10.3982 31.1828 9.0996 31.1828C7.80097 31.1828 6.55567 30.6828 5.63754 29.7928L4.14237 28.3435C3.19472 27.4249 1.65831 27.425 0.710695 28.3435C-0.23692 29.2621 -0.236895 30.7514 0.71075 31.67L2.20568 33.119C4.03412 34.8915 6.51404 35.8871 9.0996 35.8871C11.6851 35.8871 14.1648 34.8917 15.9933 33.1193L16.5571 32.5729C17.4752 31.6828 18.7205 31.1828 20.0191 31.1828C21.3178 31.1828 22.5629 31.6827 23.4813 32.5729L24.0448 33.1191C25.8733 34.8915 28.3528 35.8871 30.9386 35.8871C32.0554 35.8871 33.1523 35.7014 34.1856 35.3476Z" fill="black"/>
<path d="M16.5571 46.6857C17.4752 45.7957 18.7205 45.2957 20.0191 45.2957C21.3178 45.2957 22.5629 45.7956 23.4813 46.6858L24.0448 47.232C25.8733 49.0044 28.3528 50 30.9386 50C33.5244 50 36.004 49.0044 37.8325 47.232L38.3959 46.6858C39.3143 45.7956 40.5595 45.2957 41.8581 45.2957C43.1568 45.2957 44.402 45.7956 45.3203 46.6858L46.8153 48.135C47.763 49.0536 49.2994 49.0536 50.247 48.135C51.1946 47.2164 51.1946 45.7271 50.247 44.8086L48.752 43.3594C46.9235 41.587 44.4439 40.5914 41.8581 40.5914C39.2724 40.5914 36.7928 41.587 34.9643 43.3594L34.4008 43.9056C33.4825 44.7958 32.2373 45.2957 30.9386 45.2957C29.64 45.2957 28.3948 44.7958 27.4764 43.9056L26.913 43.3594C25.0845 41.587 22.6049 40.5914 20.0191 40.5914C17.4336 40.5914 14.9539 41.5868 13.1254 43.3593L12.5617 43.9057C11.6435 44.7957 10.3982 45.2957 9.0996 45.2957C7.80097 45.2957 6.55567 44.7957 5.63754 43.9057L4.14237 42.4564C3.19472 41.5378 1.65831 41.5379 0.710695 42.4564C-0.23692 43.375 -0.236895 44.8643 0.71075 45.7829L2.20568 47.2319C4.03412 49.0044 6.51404 50 9.0996 50C11.6851 50 14.1648 49.0046 15.9933 47.2321L16.5571 46.6857Z" fill="black"/>
</svg>
