<svg width="47" height="50" viewBox="0 0 47 50" fill="none" xmlns="http://www.w3.org/2000/svg">
<path fill-rule="evenodd" clip-rule="evenodd" d="M12.8879 5.00005C10.0408 5.00005 7.73273 7.23866 7.73273 10.0001V30.8853C7.73273 31.4946 7.50333 32.0829 7.08763 32.5397C5.88317 33.8632 5.15516 35.5961 5.15516 37.4999C5.15516 41.6422 8.61719 44.9999 12.8879 44.9999C17.1585 44.9999 20.6206 41.6422 20.6206 37.4999C20.6206 35.5961 19.8927 33.8632 18.6882 32.5398C18.2725 32.083 18.043 31.4946 18.043 30.8853V10.0001C18.043 7.23866 15.735 5.00005 12.8879 5.00005ZM2.57758 10.0001C2.57758 4.47721 7.19367 0 12.8879 0C18.5821 0 23.1982 4.47721 23.1982 10.0001V29.9989C24.8156 32.0877 25.7758 34.6876 25.7758 37.4999C25.7758 44.4037 20.0055 50 12.8879 50C5.77013 50 0 44.4037 0 37.4999C0 34.6875 0.960289 32.0877 2.57758 29.9989V10.0001ZM38.6637 5.00005C37.2401 5.00005 36.0861 6.11932 36.0861 7.50008C36.0861 8.88083 37.2401 10.0001 38.6637 10.0001C40.0873 10.0001 41.2412 8.88083 41.2412 7.50008C41.2412 6.11932 40.0873 5.00005 38.6637 5.00005ZM30.9309 7.50008C30.9309 3.35792 34.3929 0 38.6637 0C42.9344 0 46.3964 3.35792 46.3964 7.50008C46.3964 11.6422 42.9344 15.0001 38.6637 15.0001C34.3929 15.0001 30.9309 11.6422 30.9309 7.50008ZM12.8879 7.50008C14.3114 7.50008 15.4655 8.61937 15.4655 10.0001V33.1687C17.0063 34.0333 18.043 35.6491 18.043 37.4999C18.043 40.2614 15.735 42.4999 12.8879 42.4999C10.0408 42.4999 7.73273 40.2614 7.73273 37.4999C7.73273 35.6491 8.76944 34.0333 10.3103 33.1687V10.0001C10.3103 8.61937 11.4643 7.50008 12.8879 7.50008Z" fill="black"/>
</svg>
