<svg width="53" height="50" viewBox="0 0 53 50" fill="none" xmlns="http://www.w3.org/2000/svg">
<path fill-rule="evenodd" clip-rule="evenodd" d="M21.2 5.55556C20.4154 5.55556 19.7132 5.90944 19.2241 6.48219C18.2481 7.62531 16.5728 7.72258 15.4822 6.69945C14.3917 5.67632 14.2989 3.92022 15.2749 2.77709C16.7269 1.07667 18.8452 0 21.2 0C25.5908 0 29.15 3.73099 29.15 8.33333C29.15 12.9357 25.5908 16.6667 21.2 16.6667H2.65C1.18645 16.6667 0 15.423 0 13.8889C0 12.3548 1.18645 11.1111 2.65 11.1111H21.2C22.6636 11.1111 23.85 9.86749 23.85 8.33333C23.85 6.79918 22.6636 5.55556 21.2 5.55556ZM42.4 11.1111C40.8305 11.1111 39.4232 11.8227 38.449 12.9636C37.4729 14.1068 35.7976 14.2041 34.7071 13.181C33.6165 12.1579 33.5237 10.4018 34.4997 9.25861C36.4368 6.98985 39.2604 5.55556 42.4 5.55556C48.2544 5.55556 53 10.5302 53 16.6667C53 22.8033 48.2543 27.7778 42.4 27.7778H2.65C1.18645 27.7778 0 26.5341 0 25C0 23.4659 1.18645 22.2222 2.65 22.2222H42.4C45.3272 22.2222 47.7 19.735 47.7 16.6667C47.7 13.5984 45.3272 11.1111 42.4 11.1111ZM0 36.1111C0 34.577 1.18645 33.3333 2.65 33.3333H29.15C33.5407 33.3333 37.1 37.0642 37.1 41.6667C37.1 46.2691 33.5407 50 29.15 50C26.7953 50 24.6768 48.9233 23.2249 47.2227C22.2489 46.0795 22.3418 44.3234 23.4324 43.3003C24.523 42.2773 26.1984 42.3747 27.1744 43.5179C27.6633 44.0906 28.3655 44.4444 29.15 44.4444C30.6136 44.4444 31.8 43.2009 31.8 41.6667C31.8 40.1325 30.6136 38.8889 29.15 38.8889H2.65C1.18645 38.8889 0 37.6452 0 36.1111Z" fill="black"/>
</svg>
