<svg width="50" height="50" viewBox="0 0 50 50" fill="none" xmlns="http://www.w3.org/2000/svg">
<path fill-rule="evenodd" clip-rule="evenodd" d="M9.65466 1.08823L7.8125 2.5L5.97034 1.08823C6.3864 0.407203 7.07572 0 7.8125 0C8.54928 0 9.2386 0.407203 9.65466 1.08823ZM7.8125 7.15515C7.53845 7.66531 7.25191 8.21247 6.96594 8.77961C6.29018 10.1198 5.6391 11.5293 5.16314 12.803C4.65658 14.1586 4.46429 15.0632 4.46429 15.5C4.46429 16.9763 4.84394 18.1195 5.38643 18.8462C5.89049 19.5214 6.64815 20 7.8125 20C8.97685 20 9.73451 19.5214 10.2386 18.8462C10.7811 18.1195 11.1607 16.9763 11.1607 15.5C11.1607 15.0632 10.9684 14.1586 10.4619 12.803C9.9859 11.5293 9.33482 10.1198 8.65906 8.77961C8.37309 8.21247 8.08654 7.66531 7.8125 7.15515ZM7.8125 2.5C5.97034 1.08823 5.97019 1.08846 5.97003 1.08873L5.96432 1.09808C5.96098 1.10358 5.9563 1.11127 5.95035 1.12109C5.93843 1.14073 5.92136 1.16892 5.8995 1.20522C5.85577 1.2778 5.7928 1.38286 5.71333 1.51687C5.55446 1.78477 5.32927 2.169 5.05979 2.6412C4.5221 3.58338 3.80199 4.88646 3.0787 6.32089C2.35937 7.74748 1.61536 9.34629 1.045 10.8726C0.505254 12.3169 0 14.0038 0 15.5C0 17.8897 0.612727 20.2465 1.96151 22.0533C3.34873 23.9116 5.38125 25 7.8125 25C10.2438 25 12.2763 23.9116 13.6635 22.0533C15.0123 20.2465 15.625 17.8897 15.625 15.5C15.625 14.0038 15.1197 12.3169 14.58 10.8726C14.0096 9.34629 13.2656 7.74748 12.5463 6.32089C11.823 4.88646 11.1029 3.58338 10.5652 2.6412C10.2957 2.169 10.0705 1.78477 9.91167 1.51687C9.8322 1.38286 9.76923 1.2778 9.7255 1.20522C9.70364 1.16892 9.68657 1.14073 9.67465 1.12109C9.66869 1.11127 9.66402 1.10358 9.66067 1.09808L9.65497 1.08873C9.65481 1.08846 9.65466 1.08823 7.8125 2.5Z" fill="black"/>
<path fill-rule="evenodd" clip-rule="evenodd" d="M35.0102 1.10982L32.8125 2.5L30.6148 1.10982C31.1056 0.416304 31.9299 0 32.8125 0C33.6951 0 34.5194 0.416304 35.0102 1.10982ZM32.8125 7.12659C32.8025 7.14169 32.7925 7.15684 32.7825 7.17203C31.4358 9.20926 29.6439 12.0097 27.8556 15.0715C26.0629 18.1411 24.2982 21.4318 22.9889 24.4569C21.6449 27.5617 20.9135 30.0935 20.9135 31.75C20.9135 35.6558 22.0764 38.9943 24.0741 41.3046C26.0233 43.5589 28.8998 45 32.8125 45C36.7252 45 39.6017 43.5589 41.5509 41.3046C43.5486 38.9943 44.7115 35.6558 44.7115 31.75C44.7115 30.0935 43.9801 27.5617 42.6361 24.4569C41.3267 21.4318 39.5621 18.1411 37.7694 15.0715C35.9811 12.0097 34.1892 9.20926 32.8425 7.17203C32.8325 7.15684 32.8225 7.14169 32.8125 7.12659ZM32.8125 2.5C30.6148 1.10982 30.6146 1.1101 30.6143 1.11045L30.602 1.12797C30.5942 1.13897 30.583 1.15488 30.5685 1.17557C30.5394 1.21696 30.4969 1.2775 30.442 1.35619C30.3322 1.51357 30.1725 1.74364 29.97 2.03845C29.565 2.62796 28.9886 3.47704 28.2978 4.52214C26.9176 6.61015 25.0736 9.49125 23.2261 12.6546C21.383 15.8102 19.5118 19.2884 18.0944 22.5631C16.7114 25.7582 15.625 29.0572 15.625 31.75C15.625 36.5427 17.0484 41.0792 19.9797 44.4693C22.9595 47.9154 27.3546 50 32.8125 50C38.2704 50 42.6655 47.9154 45.6453 44.4693C48.5766 41.0792 50 36.5427 50 31.75C50 29.0572 48.9136 25.7582 47.5306 22.5631C46.1132 19.2884 44.242 15.8102 42.3989 12.6546C40.5514 9.49125 38.7074 6.61015 37.3272 4.52214C36.6364 3.47704 36.06 2.62796 35.655 2.03845C35.4525 1.74364 35.2928 1.51357 35.183 1.35619C35.1281 1.2775 35.0856 1.21696 35.0565 1.17557C35.042 1.15488 35.0308 1.13897 35.023 1.12797L35.0107 1.11045C35.0104 1.1101 35.0102 1.10982 32.8125 2.5Z" fill="black"/>
</svg>
