<svg width="50" height="50" viewBox="0 0 50 50" fill="none" xmlns="http://www.w3.org/2000/svg">
<path fill-rule="evenodd" clip-rule="evenodd" d="M25 5C13.9543 5 5 13.9543 5 25C5 36.0458 13.9543 45 25 45C36.0458 45 45 36.0458 45 25C45 13.9543 36.0458 5 25 5ZM0 25C0 11.1929 11.1929 0 25 0C38.8072 0 50 11.1929 50 25C50 38.8072 38.8072 50 25 50C11.1929 50 0 38.8072 0 25ZM25.931 17.3256C24.397 18.0562 22.1694 19.1171 19.3215 18.6217C18.3861 18.4589 17.3317 18.1003 16.6092 17.8329C16.2265 17.6913 15.8928 17.5584 15.6541 17.4608C15.5343 17.4117 15.4373 17.3711 15.3686 17.3421C15.3343 17.3275 15.307 17.3159 15.2875 17.3075C15.2777 17.3033 15.2698 17.2999 15.264 17.2974L15.2567 17.2942L15.2533 17.2927L15.2529 17.2926C15.2527 17.2925 15.2526 17.2924 16.25 15L15.2526 17.2924C13.9865 16.7415 13.4067 15.2686 13.9576 14.0026C14.5083 12.7369 15.9806 12.157 17.2464 12.7071C17.2464 12.7071 17.2464 12.7071 17.2464 12.7071C17.2464 12.7072 17.2465 12.7072 17.2465 12.7072L17.2468 12.7073L17.2471 12.7075C17.2472 12.7075 17.2473 12.7075 17.2474 12.7076L17.2605 12.7132C17.2725 12.7184 17.2918 12.7266 17.3177 12.7376C17.3697 12.7596 17.4481 12.7924 17.5474 12.8331C17.747 12.9147 18.0268 13.0261 18.3448 13.1438C19.0236 13.395 19.7192 13.6157 20.1785 13.6956C21.3566 13.9006 22.2719 13.5283 23.9273 12.7419C23.9738 12.7197 24.0211 12.6972 24.069 12.6744C25.603 11.9438 27.8306 10.8829 30.6785 11.3783C31.614 11.5411 32.6683 11.8997 33.3908 12.1671C33.7735 12.3087 34.1072 12.4416 34.346 12.5393C34.4658 12.5883 34.5628 12.6289 34.6314 12.6579C34.6657 12.6725 34.693 12.6841 34.7126 12.6925C34.7189 12.6953 34.7244 12.6976 34.7291 12.6997L34.736 12.7027L34.7471 12.7075C34.7473 12.7075 34.7475 12.7076 33.75 15L34.7475 12.7076C36.0135 13.2585 36.5933 14.7314 36.0424 15.9975C35.4916 17.2634 34.019 17.8431 32.753 17.2926C32.753 17.2926 32.753 17.2926 32.7529 17.2926C32.7529 17.2926 32.7529 17.2925 32.7528 17.2925C32.7527 17.2925 32.7526 17.2924 32.7525 17.2924L32.7395 17.2868C32.7275 17.2816 32.7082 17.2734 32.6823 17.2624C32.6303 17.2404 32.5519 17.2076 32.4526 17.1669C32.253 17.0852 31.9732 16.9739 31.6552 16.8562C30.9765 16.605 30.2808 16.3843 29.8215 16.3044C28.6434 16.0994 27.7281 16.4717 26.0727 17.2581C26.0262 17.2803 25.9789 17.3028 25.931 17.3256ZM25.7454 27.3898C23.7353 28.1332 21.1806 29.078 17.9148 28.6362L17.9146 28.6362C16.828 28.489 15.5575 28.1561 14.6359 27.8908C14.1584 27.7533 13.7413 27.6242 13.4429 27.5292C13.2933 27.4816 13.1726 27.4423 13.088 27.4145C13.0457 27.4005 13.0123 27.3894 12.9888 27.3816C12.9771 27.3776 12.9678 27.3745 12.961 27.3723L12.9503 27.3686L12.9493 27.3683L12.949 27.3682C12.9488 27.3681 12.9486 27.3681 13.75 25L12.9486 27.3681C11.6408 26.9255 10.9393 25.5065 11.3819 24.1986C11.8244 22.891 13.2431 22.1895 14.5508 22.6317C14.5508 22.6317 14.5508 22.6317 14.5508 22.6317M14.5514 22.6319L14.5546 22.633C14.5582 22.6342 14.5644 22.6363 14.5729 22.6391C14.579 22.6412 14.5865 22.6437 14.5951 22.6465C14.6103 22.6516 14.6292 22.6578 14.6516 22.6652C14.722 22.6884 14.8268 22.7226 14.959 22.7646C15.2242 22.849 15.5959 22.964 16.0192 23.0859C16.8993 23.3393 17.8786 23.5856 18.5852 23.6813C20.5442 23.9463 22.0573 23.4221 24.1335 22.655C24.1736 22.6401 24.214 22.6252 24.2546 22.6102C26.2647 21.8668 28.8194 20.922 32.0852 21.3638L32.0854 21.3638C33.1721 21.5109 34.4426 21.8439 35.3641 22.1092C35.8416 22.2467 36.2587 22.3758 36.5572 22.4708C36.7067 22.5184 36.8274 22.5577 36.912 22.5856C36.9543 22.5995 36.9877 22.6106 37.0112 22.6184C37.023 22.6224 37.0323 22.6255 37.039 22.6278L37.0498 22.6314L37.0507 22.6317L37.0511 22.6318C37.0512 22.6319 37.0514 22.6319 36.25 25L37.0514 22.6319C38.3592 23.0745 39.0607 24.4935 38.6181 25.8014C38.1755 27.109 36.7569 27.8105 35.4492 27.3683C35.4491 27.3682 35.449 27.3682 35.4489 27.3682L35.4486 27.3681L35.4454 27.367C35.4417 27.3658 35.4356 27.3637 35.4271 27.3609C35.4101 27.3552 35.3836 27.3464 35.3484 27.3348C35.278 27.3116 35.1732 27.2774 35.041 27.2354C34.7758 27.151 34.4042 27.036 33.9808 26.9141C33.1008 26.6607 32.1214 26.4144 31.4148 26.3187C29.4558 26.0537 27.9427 26.5779 25.8665 27.345C25.8264 27.3599 25.786 27.3748 25.7454 27.3898M25.931 37.3256C24.397 38.0562 22.1694 39.1171 19.3216 38.6218L19.3213 38.6217C18.386 38.4589 17.3317 38.1003 16.6092 37.8329C16.2265 37.6913 15.8928 37.5584 15.6541 37.4608C15.5343 37.4117 15.4373 37.3711 15.3687 37.3421C15.3461 37.3325 15.3266 37.3242 15.3103 37.3173C15.3018 37.3136 15.2942 37.3104 15.2875 37.3075C15.2777 37.3033 15.2698 37.2999 15.264 37.2974L15.2568 37.2942L15.2533 37.2927L15.2529 37.2926C15.2528 37.2925 15.2526 37.2924 16.25 35L15.2526 37.2924C13.9865 36.7416 13.4067 35.2687 13.9576 34.0026C14.5083 32.7368 15.9808 32.1569 17.2467 32.7073C17.2468 32.7073 17.2468 32.7073 17.2468 32.7073C17.2469 32.7074 17.247 32.7074 17.2471 32.7074C17.2472 32.7075 17.2473 32.7075 17.2474 32.7076L17.2605 32.7132C17.2724 32.7184 17.2917 32.7266 17.3177 32.7376C17.3697 32.7596 17.4481 32.7924 17.5474 32.8331C17.747 32.9147 18.0268 33.0261 18.3448 33.1438C19.0235 33.395 19.7191 33.6157 20.1784 33.6957C21.3566 33.9007 22.2718 33.5283 23.9273 32.7419C23.9738 32.7197 24.0211 32.6972 24.069 32.6744C25.603 31.9438 27.8306 30.8829 30.6784 31.3782L30.6787 31.3783C31.614 31.5411 32.6683 31.8997 33.3909 32.1671C33.7735 32.3088 34.1072 32.4416 34.3459 32.5393C34.4658 32.5883 34.5628 32.6289 34.6314 32.6579C34.6657 32.6725 34.693 32.6841 34.7125 32.6925C34.7191 32.6954 34.7248 32.6978 34.7296 32.6999L34.736 32.7026L34.7457 32.7069L34.7471 32.7074C34.7473 32.7075 34.7474 32.7076 33.75 35L34.7474 32.7076C36.0135 33.2585 36.5933 34.7314 36.0424 35.9974C35.4917 37.2631 34.0194 37.843 32.7536 37.2929C32.7536 37.2928 32.7535 37.2928 32.7535 37.2928C32.7534 37.2928 32.7533 37.2927 32.7532 37.2927C32.7532 37.2927 32.7532 37.2927 32.7531 37.2927C32.753 37.2926 32.753 37.2926 32.7529 37.2925C32.7528 37.2925 32.7527 37.2925 32.7526 37.2924L32.7395 37.2868C32.7275 37.2816 32.7082 37.2734 32.6823 37.2624C32.6303 37.2404 32.5519 37.2076 32.4526 37.1669C32.253 37.0853 31.9732 36.9739 31.6552 36.8562C30.9766 36.605 30.281 36.3843 29.8216 36.3043M25.931 37.3256C25.9789 37.3028 26.0262 37.2803 26.0728 37.2581ZM26.0728 37.2581C27.728 36.4718 28.6433 36.0994 29.8213 36.3042Z" fill="black"/>
</svg>
